<?xml version="1.0" encoding="UTF-8" standalone="no"?>
<!DOCTYPE svg PUBLIC "-//W3C//DTD SVG 1.1//EN" "http://www.w3.org/Graphics/SVG/1.1/DTD/svg11.dtd">
<svg width="100%" height="100%" viewBox="0 0 1568 90" version="1.1" xmlns="http://www.w3.org/2000/svg" xmlns:xlink="http://www.w3.org/1999/xlink" xml:space="preserve" xmlns:serif="http://www.serif.com/" style="fill-rule:evenodd;clip-rule:evenodd;stroke-linejoin:round;stroke-miterlimit:2;">
    <g transform="matrix(1,0,0,1,-288.849,-992.616)">
        <g transform="matrix(1,0,0,1,155.553,81.7947)">
            <path d="M1688.68,952.434C1691.63,950.849 1695.39,951.246 1697.96,953.678C1701.16,956.714 1701.3,961.782 1698.27,964.987C1697.6,965.693 1696.37,966.725 1694.3,967.461C1692.36,968.15 1687.91,968.992 1681.81,969.753C1655.35,973.045 1593.17,976.749 1589.5,977.095C1493.1,986.178 1395.56,985.622 1298.93,992.565C1258.02,995.504 1217.55,1002.15 1176.41,1000.33C1055.67,994.97 934.205,967.483 814.833,951.954C754.976,944.167 692.052,947.372 631.485,941.699C528.078,932.013 418.182,921.921 314.017,929.434C279.687,931.909 248.506,947.071 215.883,956.362C191.611,963.274 167.298,962.877 142.811,967.601C138.476,968.437 134.277,965.596 133.441,961.261C132.605,956.926 135.445,952.727 139.781,951.89C163.808,947.255 187.683,947.757 211.501,940.974C245.171,931.385 277.434,916.03 312.866,913.475C417.898,905.9 528.711,916.002 632.978,925.769C693.733,931.46 756.853,928.276 816.897,936.087C935.824,951.559 1056.83,979.006 1177.12,984.343C1217.64,986.14 1257.49,979.501 1297.78,976.606C1394.29,969.672 1491.72,970.237 1588,961.166C1591.65,960.822 1653.51,957.151 1679.83,953.875C1683.64,953.4 1687.63,952.64 1688.68,952.434Z"/>
        </g>
    </g>
</svg>
