<?xml version="1.0" encoding="UTF-8" standalone="no"?>
<!-- Created with Keyshape -->
<svg xmlns="http://www.w3.org/2000/svg" shape-rendering="geometricPrecision" text-rendering="geometricPrecision" viewBox="0 0 913 500" style="white-space: pre;">
    <style>
@keyframes cmd-down_o { 0% { opacity: 0; } 54.8077% { opacity: 0; animation-timing-function: cubic-bezier(0,0,1,1); } 54.9712% { opacity: 1; } 67.3077% { opacity: 1; } 67.625% { opacity: 0; } 100% { opacity: 0; } }
@keyframes cmd_o { 0% { opacity: 1; animation-timing-function: cubic-bezier(0,0,1,1); } 54.8077% { opacity: 1; } 54.9712% { opacity: 0; } 67.3077% { opacity: 0; } 67.625% { opacity: 1; } 100% { opacity: 1; } }
@keyframes button-btm_do { 0% { stroke-dashoffset: 456.12px; } 42.4231% { stroke-dashoffset: 456.12px; } 53.8462% { stroke-dashoffset: 0px; } 100% { stroke-dashoffset: 0px; } }
@keyframes button-right_do { 0% { stroke-dashoffset: 412.55px; } 32.625% { stroke-dashoffset: 412.55px; } 42.4231% { stroke-dashoffset: 0px; } 100% { stroke-dashoffset: 0px; } }
@keyframes button-box_do { 0% { stroke-dashoffset: 1205.16px; } 4.8942% { stroke-dashoffset: 1205.16px; } 32.625% { stroke-dashoffset: 0px; } 100% { stroke-dashoffset: 0px; } }
@keyframes squggle_do { 0% { stroke-dashoffset: 1126.59px; } 24.4712% { stroke-dashoffset: 1126.59px; } 53.8462% { stroke-dashoffset: 0px; } 100% { stroke-dashoffset: 0px; } }
@keyframes _10-down_o { 0% { opacity: 0; } 62.6635% { opacity: 0; } 62.8173% { opacity: 1; } 68.4327% { opacity: 1; } 68.5865% { opacity: 0; } 100% { opacity: 0; } }
@keyframes te-_o { 0% { opacity: 1; } 62.6635% { opacity: 1; } 62.8173% { opacity: 0; } 68.4327% { opacity: 0; } 68.5865% { opacity: 1; } 100% { opacity: 1; } }
@keyframes ten-btm_do { 0% { stroke-dashoffset: 350.76px; } 45.1923% { stroke-dashoffset: 350.76px; } 50.9615% { stroke-dashoffset: 0px; } 100% { stroke-dashoffset: 0px; } }
@keyframes ten-right_do { 0% { stroke-dashoffset: 445.6px; } 38.4615% { stroke-dashoffset: 445.6px; } 47.1154% { stroke-dashoffset: 0px; } 100% { stroke-dashoffset: 0px; } }
@keyframes ten-box_do { 0% { stroke-dashoffset: 1181.37px; } 30.7692% { stroke-dashoffset: 1181.37px; } 50.9615% { stroke-dashoffset: 0px; } 100% { stroke-dashoffset: 0px; } }
@keyframes zero_do { 0% { stroke-dashoffset: 488.19px; } 30.7692% { stroke-dashoffset: 488.19px; } 46.1538% { stroke-dashoffset: 0px; } 100% { stroke-dashoffset: 0px; } }
@keyframes one_do { 0% { stroke-dashoffset: 329.09px; } 30.7692% { stroke-dashoffset: 329.09px; } 39.4231% { stroke-dashoffset: 0px; } 100% { stroke-dashoffset: 0px; } }
    </style>
    <g id="cmd-down" clip-rule="evenodd" fill-rule="evenodd" stroke-linecap="round" stroke-linejoin="round" stroke-miterlimit="1.5" opacity="0" transform="translate(252.382,263.977) translate(-287.103,-289.103)" style="animation: 10.4s linear both cmd-down_o;">
        <path d="M111.425,120.073C111.425,120.073,427.417,99.555,437.003,126.912C446.589,154.269,451.602,382.144,431.756,388.211C411.909,394.279,98.675,398.553,93.787,390.99C88.899,383.428,72.68,227.847,111.425,120.073Z" fill="white" stroke="black" stroke-width="17px" transform="translate(283.635,282.6) translate(-265.828,-253.861)"/>
        <path d="M195.488,193.47L368.094,193.47C368.094,193.47,386.223,194.958,386.223,172.931C386.223,150.904,379.246,150.517,363.809,150.517C348.371,150.517,347.4,146.529,347.4,166.925L347.4,293.126C347.4,293.126,349.59,317.736,368.16,317.736C386.73,317.736,387.879,317.579,387.879,298.017C387.879,278.454,378.723,275.597,365.459,275.597L163.395,275.597C163.395,275.597,147.531,279.693,147.531,303.775C147.531,327.857,147.902,327.759,164.938,327.759C181.973,327.759,190.719,321.263,190.719,301.978L190.719,153.001C190.719,153.001,179.426,134.357,159.953,134.357C140.48,134.357,136.826,135.919,136.826,157.484C136.826,179.048,155.148,190.658,170,190.658C184.852,190.658,195.488,193.47,195.488,193.47Z" fill="none" stroke="black" stroke-width="17px" transform="translate(290.54,271.092) translate(-262.353,-231.058)"/>
        <path d="M110.738,415.089C110.738,415.089,111.193,423.396,113.843,427.885C124.865,446.552,467.607,430.04,467.607,430.04L462.331,397.316" fill="none" stroke="black" stroke-width="17px" transform="translate(289.173,417.048) translate(-289.173,-417.048)"/>
        <path d="M132.92,148.596C132.92,148.596,471.676,127.805,469.653,158.381C467.112,196.796,470.159,428.711,470.159,428.711" fill="none" stroke="black" stroke-width="17px" transform="translate(301.54,285.201) translate(-301.54,-285.201)"/>
    </g>
    <g id="cmd" opacity="1" transform="translate(251.159,252.376) translate(-199.64,-162.605)" style="animation: 10.4s linear both cmd_o;">
        <path id="button-btm" d="M436.607,388.873L467.607,430.04C467.607,430.04,136.144,442.305,115.347,436.185C94.55,430.066,94.336,391.665,94.336,391.665" fill="white" stroke="black" stroke-width="17px" stroke-linecap="round" stroke-linejoin="round" stroke-dashoffset="456.12" stroke-dasharray="456.12" transform="translate(194.732,300.699) translate(-280.971,-413.385)" style="animation: 10.4s linear both button-btm_do;"/>
        <path id="button-right" d="M433.269,122.855C433.269,122.855,484.43,149.711,485.472,180.336C486.514,210.961,470.159,428.711,470.159,428.711L424.221,375.415" fill="white" stroke="black" stroke-width="17px" stroke-linecap="round" stroke-linejoin="round" stroke-dashoffset="412.55" stroke-dasharray="412.55" transform="translate(359.866,163.097) translate(-446.105,-275.783)" style="animation: 10.4s linear both button-right_do;"/>
        <path id="button-box" d="M111.425,120.073C111.425,120.073,427.417,99.555,437.003,126.912C446.589,154.269,451.602,382.144,431.756,388.211C411.909,394.279,98.675,398.553,93.787,390.99C88.899,383.428,72.68,227.847,111.425,120.073Z" fill="white" stroke="black" stroke-width="17px" stroke-dashoffset="1205.16" stroke-dasharray="1205.16" stroke-linecap="round" stroke-linejoin="round" transform="translate(179.589,141.175) translate(-265.828,-253.861)" style="animation: 10.4s linear both button-box_do;"/>
        <path id="squggle" d="M195.488,193.47L368.094,193.47C368.094,193.47,386.223,194.958,386.223,172.931C386.223,150.904,379.246,150.517,363.809,150.517C348.371,150.517,347.4,146.529,347.4,166.925L347.4,293.126C347.4,293.126,349.59,317.736,368.16,317.736C386.73,317.736,387.879,317.579,387.879,298.017C387.879,278.454,378.723,275.597,365.459,275.597L163.395,275.597C163.395,275.597,147.531,279.693,147.531,303.775C147.531,327.857,147.902,327.759,164.938,327.759C181.973,327.759,190.719,321.263,190.719,301.978L190.719,153.001C190.719,153.001,179.426,134.357,159.953,134.357C140.48,134.357,136.826,135.919,136.826,157.484C136.826,179.048,155.148,190.658,170,190.658C184.852,190.658,195.488,193.47,195.488,193.47Z" fill="none" stroke="black" stroke-width="17px" stroke-linecap="round" stroke-linejoin="round" stroke-dashoffset="1126.59" stroke-dasharray="1126.59" transform="translate(186.494,129.666) translate(-262.353,-231.058)" style="animation: 10.4s linear both squggle_do;"/>
    </g>
    <g id="_10-down" clip-rule="evenodd" fill-rule="evenodd" stroke-linecap="round" stroke-linejoin="round" stroke-miterlimit="1.5" opacity="0" transform="translate(678.946,260.868) translate(-692.106,-284.6)" style="animation: 10.4s linear both _10-down_o;">
        <path d="M550.386,443.242C587.27,452.244,827.045,446.389,827.045,446.389L810.542,409.258" fill="white" stroke="black" stroke-width="17px" transform="translate(688.716,428.759) translate(-688.716,-428.759)"/>
        <path d="M551.263,132.131C551.263,132.131,806.648,113.196,832.178,124.584C848.471,148.992,841.429,417.3,826.991,445.659" fill="white" stroke="black" stroke-width="17px" transform="translate(696.407,283.299) translate(-696.407,-283.299)"/>
        <path d="M538.415,110.555L820.878,103.191C820.878,103.191,831.3,402.987,805.368,415.868C779.435,428.748,539.11,420.719,539.11,420.719C539.11,420.719,524.602,118.42,538.415,110.555Z" fill="white" stroke="black" stroke-width="17px" transform="translate(687.91,286.324) translate(-677.699,-263.191)"/>
        <path d="M464.372,183.501C464.372,183.501,487.128,173.356,488.724,159.708C490.32,146.059,487.751,337.911,487.751,337.911C487.751,337.911,461.304,327.598,447.157,338.299C467.851,335.639,503.661,337.323,518.462,344.377" fill="none" stroke="black" stroke-width="17px" transform="translate(614.396,274.828) translate(-482.809,-251.695)"/>
        <path d="M635.529,157.012C635.529,157.012,699.354,140.733,691.757,252.376C689.256,289.129,679.361,346.467,651.096,346.543C585.145,346.72,584.291,275.68,585.489,226.034C586.988,163.932,635.529,157.012,635.529,157.012Z" fill="none" stroke="black" stroke-width="17px" transform="translate(724.261,276.428) translate(-638.819,-251.363)"/>
    </g>
    <g id="te-" opacity="1" transform="translate(686.999,252.868) translate(-166.142,-175.832)" style="animation: 10.4s linear both te-_o;">
        <path id="ten-btm" d="M810.542,409.258L827.045,446.389C827.045,446.389,572.238,456.998,559.774,453.982C547.31,450.967,534.123,420.993,534.123,420.993" fill="white" stroke="black" stroke-width="17px" stroke-linecap="round" stroke-linejoin="round" stroke-dashoffset="350.76" stroke-dasharray="350.76" transform="translate(149.813,329.033) translate(-680.584,-431.89)" style="animation: 10.4s linear both ten-btm_do;"/>
        <path id="ten-right" d="M824.691,102.857C824.691,102.857,856.964,140.123,862.326,159.889C868.252,181.735,836.358,449.279,826.563,446.714L785.417,370.448" fill="white" stroke="black" stroke-width="17px" stroke-linecap="round" stroke-linejoin="round" stroke-dashoffset="445.6" stroke-dasharray="445.6" transform="translate(293.465,171.938) translate(-824.236,-274.795)" style="animation: 10.4s linear both ten-right_do;"/>
        <path id="ten-box" d="M538.415,110.555L820.878,103.191C820.878,103.191,831.3,402.987,805.368,415.868C779.435,428.748,533.727,420.826,533.727,420.826C533.727,420.826,524.602,118.42,538.415,110.555Z" fill="white" stroke="black" stroke-width="17px" stroke-linecap="round" stroke-linejoin="round" stroke-dashoffset="1181.37" stroke-dasharray="1181.37" transform="translate(146.088,160.357) translate(-676.859,-263.214)" style="animation: 10.4s linear both ten-box_do;"/>
        <path id="zero" d="M635.529,157.012C635.529,157.012,699.354,140.733,691.757,252.376C689.256,289.129,679.361,346.467,651.096,346.543C585.145,346.72,584.291,275.68,585.489,226.034C586.988,163.932,635.529,157.012,635.529,157.012Z" fill="none" stroke="black" stroke-width="17px" stroke-linecap="round" stroke-linejoin="round" stroke-dashoffset="488.19" stroke-dasharray="488.19" transform="translate(183.279,150.438) translate(-638.819,-251.363)" style="animation: 10.4s linear both zero_do;"/>
        <path id="one" d="M464.372,183.501C464.372,183.501,487.128,173.356,488.724,159.708C490.32,146.059,487.751,337.911,487.751,337.911C487.751,337.911,461.304,327.598,447.157,338.299C467.851,335.639,503.661,337.323,518.462,344.377" fill="none" stroke="black" stroke-width="17px" stroke-linecap="round" stroke-linejoin="round" stroke-dashoffset="329.09" stroke-dasharray="329.09" transform="translate(73.4143,148.838) translate(-482.809,-251.695)" style="animation: 10.4s linear both one_do;"/>
    </g>
</svg>
