<?xml version="1.0" encoding="UTF-8" standalone="no"?>
<!-- Created with Keyshape -->
<svg xmlns="http://www.w3.org/2000/svg" shape-rendering="geometricPrecision" text-rendering="geometricPrecision" viewBox="0 0 640 480" style="white-space: pre;">
    <style>
@keyframes a0_do { 0% { stroke-dashoffset: 4843.15px; } 8.3333% { stroke-dashoffset: 4439.55px; } 16.6667% { stroke-dashoffset: 4035.96px; } 28.3333% { stroke-dashoffset: 3551.64px; } 38.3333% { stroke-dashoffset: 3056.07px; } 100% { stroke-dashoffset: 0px; } }
@keyframes a1_f { 0% { fill: #dfb243; } 1.6667% { fill: #dfb243; } 3.3333% { fill: #dfb243; } 5% { fill: #ffffff; } 6.6667% { fill: #dfb243; } 15% { fill: #dfb243; } 18.3333% { fill: #dfb243; } 20% { fill: #dfb243; } 21.6667% { fill: #ffffff; } 23.3333% { fill: #dfb243; } 100% { fill: #dfb243; } }
@keyframes a2_f { 0% { fill: #dfb243; } 1.6667% { fill: #dfb243; } 3.3333% { fill: #dfb243; } 5% { fill: #ffffff; } 6.6667% { fill: #dfb243; } 16.6667% { fill: #dfb243; } 18.3333% { fill: #dfb243; } 20% { fill: #dfb243; } 21.6667% { fill: #ffffff; } 23.3333% { fill: #dfb243; } 100% { fill: #dfb243; } }
@keyframes a3_f { 0% { fill: #004466; } 1.6667% { fill: #004466; } 3.3333% { fill: #004466; } 5% { fill: #ffffff; } 6.6667% { fill: #004466; } 16.6667% { fill: #004466; } 18.3333% { fill: #004466; } 20% { fill: #004466; } 21.6667% { fill: #ffffff; } 23.3333% { fill: #004466; } 100% { fill: #004466; } }
@keyframes a4_f { 0% { fill: #004466; } 1.6667% { fill: #004466; } 3.3333% { fill: #004466; } 5% { fill: #ffffff; } 6.6667% { fill: #004466; } 16.6667% { fill: #004466; } 18.3333% { fill: #004466; } 20% { fill: #004466; } 21.6667% { fill: #ffffff; } 23.3333% { fill: #004466; } 100% { fill: #004466; } }
@keyframes a5_f { 0% { fill: #dfb243; } 1.6667% { fill: #dfb243; } 3.3333% { fill: #dfb243; } 5% { fill: #ffffff; } 6.6667% { fill: #dfb243; } 16.6667% { fill: #dfb243; } 18.3333% { fill: #dfb243; } 20% { fill: #dfb243; } 21.6667% { fill: #ffffff; } 23.3333% { fill: #dfb243; } 100% { fill: #dfb243; } }
@keyframes a6_f { 0% { fill: #dfb243; } 1.6667% { fill: #dfb243; } 3.3333% { fill: #dfb243; } 5% { fill: #ffffff; } 6.6667% { fill: #dfb243; } 16.6667% { fill: #dfb243; } 18.3333% { fill: #dfb243; } 20% { fill: #dfb243; } 21.6667% { fill: #ffffff; } 23.3333% { fill: #dfb243; } 100% { fill: #dfb243; } }
@keyframes a7_f { 0% { fill: #004466; } 1.6667% { fill: #004466; } 3.3333% { fill: #004466; } 5% { fill: #ffffff; } 6.6667% { fill: #004466; } 16.6667% { fill: #004466; } 18.3333% { fill: #004466; } 20% { fill: #004466; } 21.6667% { fill: #ffffff; } 23.3333% { fill: #004466; } 100% { fill: #004466; } }
@keyframes a8_f { 0% { fill: #004466; } 1.6667% { fill: #004466; } 3.3333% { fill: #004466; } 5% { fill: #ffffff; } 6.6667% { fill: #004466; } 16.6667% { fill: #004466; } 18.3333% { fill: #004466; } 20% { fill: #004466; } 21.6667% { fill: #ffffff; } 23.3333% { fill: #004466; } 100% { fill: #004466; } }
    </style>
    <rect width="1604" height="1152" fill="#004466" stroke="none" display="none" transform="translate(-177.898,2.00031) translate(-304,-240)"/>
    <path d="M587.141,1521.73L827.32,1521.73L748.945,1600.1L631.145,1482.3L925.724,1482.3L717.034,1690.99L1078.57,1690.99L923.452,1535.88L805.223,1654.1L1160.17,1654.1L1023.09,1495.95L896.362,1622.68L1200.77,1622.68" fill="none" stroke="rgb(255,1,1)" stroke-width="10.23px" stroke-dashoffset="4843.15" stroke-dasharray="4843.15 4843.15" clip-rule="evenodd" fill-rule="evenodd" stroke-linecap="round" stroke-linejoin="round" stroke-miterlimit="1.5" transform="translate(660.631,357.854) scale(1.66158,1.66158) translate(-1098.96,-1656.37)" style="animation: 6s linear infinite both a0_do;"/>
    <g id="fakefarm" transform="translate(181.843,169) translate(-127.743,-73.0002)">
        <path fill="#dfb243" stroke="none" d="M54.1,-53.8L27.8,-53.8L25.9,-42.9L46.5,-42.9L43.7,-27L23.1,-27L18.3,0L0.1,0L12.4,-70L57,-70Z" transform="translate(-0.1,70)" style="animation: 6s linear infinite both a1_f;"/>
        <path fill="#dfb243" stroke="none" d="M36.9,0L36.4,-11.7L19.7,-11.7L15.2,0L-5.2,0L27.9,-70L47.9,-70L56.2,0ZM34.9,-50.8L25.5,-26.6L35.9,-26.6Z" transform="translate(46.5016,70)" style="animation: 6s linear infinite both a2_f;"/>
        <path fill="#004466" stroke="none" d="M54.1,-53.8L27.8,-53.8L25.9,-42.9L46.5,-42.9L43.7,-27L23.1,-27L18.3,0L0.1,0L12.4,-70L57,-70Z" transform="translate(4.10309,145)" style="animation: 6s linear infinite both a3_f;"/>
        <path fill="#004466" stroke="none" d="M36.9,0L36.4,-11.7L19.7,-11.7L15.2,0L-5.2,0L27.9,-70L47.9,-70L56.2,0ZM34.9,-50.8L25.5,-26.6L35.9,-26.6Z" transform="translate(55.7047,145)" style="animation: 6s linear infinite both a4_f;"/>
        <path fill="#dfb243" stroke="none" d="M62.4,-51.3C62.4,-49.0333,62.1167,-46.75,61.55,-44.45C60.9833,-42.15,60.0667,-39.7833,58.8,-37.35C57.5333,-34.9167,55.65,-32.7333,53.15,-30.8C50.65,-28.8667,47.6667,-27.4333,44.2,-26.5L53.6,0L34.6,0L26.9,-25.4L22.8,-25.4L18.3,0L0.1,0L12.4,-70L37.4,-70C54.0667,-70,62.4,-63.7667,62.4,-51.3ZM43.7,-49.6C43.7,-51.7333,43,-53.1833,41.6,-53.95C40.2,-54.7167,38.1333,-55.1,35.4,-55.1L28,-55.1L25.4,-40.3L32.9,-40.3C36.6333,-40.3,39.3667,-41.1667,41.1,-42.9C42.8333,-44.6333,43.7,-46.8667,43.7,-49.6Z" transform="translate(119.002,146)" style="animation: 6s linear infinite both a5_f;"/>
        <path fill="#dfb243" stroke="none" d="M44.5,0L50.7,-35.6L37.6,-11.7L29.5,-11.7L24.8,-37.3L18.3,0L0.1,0L12.4,-70L30.9,-70L37.3,-35.3L56.6,-70L75,-70L62.7,0Z" transform="translate(180.486,145)" style="animation: 6s linear infinite both a6_f;"/>
        <path fill="#004466" stroke="none" d="M0.1,0L12.4,-70L30.6,-70L26.5,-46.7L45.9,-70L69.3,-70L40.2,-38.1L57,0L36.8,0L27.3,-24L21.4,-17.5L18.3,0Z" transform="translate(107.798,70)" style="animation: 6s linear infinite both a7_f;"/>
        <path fill="#004466" stroke="none" d="M45.1,0L0.1,0L12.4,-70L57,-70L54.1,-53.8L27.8,-53.8L25.9,-42.9L47.2,-42.9L44.4,-27.1L23.1,-27.1L21.1,-16.2L47.9,-16.2Z" transform="translate(174.798,70)" style="animation: 6s linear infinite both a8_f;"/>
    </g>
</svg>
