<?xml version="1.0" encoding="UTF-8" standalone="no"?>
<!-- Created with Keyshape -->
<svg xmlns="http://www.w3.org/2000/svg" shape-rendering="geometricPrecision" text-rendering="geometricPrecision" viewBox="0 0 1920 600" style="white-space: pre;">
    <style>
@keyframes n_f { 0% { fill: #ffffff; } 5% { fill: #ffffff; } 6% { fill: #000000; } 22% { fill: #000000; } 26% { fill: #ffffff; } 48% { fill: #ffffff; } 50% { fill: #000000; } 69% { fill: #868686; } 78% { fill: #ffffff; } 100% { fill: #ffffff; } }
@keyframes o_f { 0% { fill: #ffffff; } 6% { fill: #ffffff; } 7% { fill: #000000; } 14% { fill: #000000; } 18% { fill: #ffffff; } 50% { fill: #ffffff; } 52% { fill: #000000; } 78% { fill: #868686; } 87% { fill: #ffffff; } 100% { fill: #ffffff; } }
@keyframes y2_f { 0% { fill: #ffffff; } 7% { fill: #ffffff; } 8% { fill: #000000; } 18% { fill: #000000; } 22% { fill: #ffffff; } 69% { fill: #ffffff; } 71% { fill: #000000; } 84% { fill: #868686; } 93% { fill: #ffffff; } 100% { fill: #ffffff; } }
@keyframes y1_f { 0% { fill: #ffffff; } 2% { fill: #ffffff; } 3% { fill: #000000; } 26% { fill: #000000; } 30% { fill: #ffffff; } 59% { fill: #ffffff; } 61% { fill: #000000; } 88% { fill: #868686; } 97% { fill: #ffffff; } 100% { fill: #ffffff; } }
@keyframes i_f { 0% { fill: #ffffff; } 6% { fill: #ffffff; } 7% { fill: #000000; } 35% { fill: #000000; } 39% { fill: #ffffff; } 57% { fill: #ffffff; } 59% { fill: #000000; } 83% { fill: #868686; } 92% { fill: #ffffff; } 100% { fill: #ffffff; } }
@keyframes z_f { 0% { fill: #ffffff; } 4% { fill: #ffffff; } 5% { fill: #000000; } 10% { fill: #000000; } 14% { fill: #ffffff; } 54% { fill: #ffffff; } 56% { fill: #000000; } 73% { fill: #868686; } 82% { fill: #ffffff; } 100% { fill: #ffffff; } }
@keyframes a0_o { 0% { opacity: 0; } 7% { opacity: 0; } 8% { opacity: 0; } 18% { opacity: 0; } 60% { opacity: 0; } 61% { opacity: 1; } 67% { opacity: 1; } 68% { opacity: 0; } 100% { opacity: 0; } }
@keyframes a0_f { 0% { fill: #ffffff; } 7% { fill: #ffffff; } 8% { fill: #000000; } 18% { fill: #ffffff; } 60% { fill: #ffffff; } 61% { fill: #000000; } 67% { fill: #000000; } 68% { fill: #ffffff; } 100% { fill: #ffffff; } }
    </style>
    <path id="n" fill="#ffffff" stroke="none" d="M1899.3,0L1817.56,0L1659.57,-169.629L1659.57,0L1568.61,0L1568.61,-304.541L1650.13,-304.541L1807.67,-135.791L1807.67,-304.541L1899.3,-304.541Z" transform="translate(103.543,432.935) scale(0.901327,0.901327)" style="animation: 10s linear infinite both n_f;"/>
    <path id="o" fill="#ffffff" stroke="none" d="M1517.85,-152.49C1517.85,-124.072,1511.3,-97.9248,1498.19,-74.0479C1485.08,-50.1709,1465.56,-31.2012,1439.63,-17.1387C1413.7,-3.07617,1382.13,3.95508,1344.93,3.95508C1307.28,3.95508,1275.42,-3.36914,1249.35,-18.0176C1223.27,-32.666,1203.9,-51.9287,1191.23,-75.8057C1178.56,-99.6826,1172.22,-125.244,1172.22,-152.49C1172.22,-179.883,1178.52,-205.481,1191.12,-229.285C1203.72,-253.088,1223.09,-272.278,1249.24,-286.853C1275.38,-301.428,1307.28,-308.716,1344.93,-308.716C1373.05,-308.716,1398.14,-304.541,1420.18,-296.191C1442.23,-287.842,1460.36,-276.526,1474.57,-262.244C1488.78,-247.961,1499.54,-231.335,1506.87,-212.366C1514.19,-193.396,1517.85,-173.438,1517.85,-152.49ZM1424.25,-152.49C1424.25,-163.916,1422.56,-174.353,1419.2,-183.801C1415.83,-193.25,1410.74,-201.453,1403.92,-208.411C1397.11,-215.369,1388.8,-220.789,1378.99,-224.67C1369.17,-228.552,1357.82,-230.493,1344.93,-230.493C1320.32,-230.493,1300.98,-223.315,1286.92,-208.96C1272.86,-194.604,1265.83,-175.781,1265.83,-152.49C1265.83,-129.199,1272.89,-110.339,1287.03,-95.9106C1301.17,-81.4819,1320.46,-74.2676,1344.93,-74.2676C1361.77,-74.2676,1376.13,-77.6001,1387.99,-84.2651C1399.86,-90.9302,1408.87,-100.159,1415.02,-111.951C1421.17,-123.743,1424.25,-137.256,1424.25,-152.49ZM1899.3,0L1817.56,0L1659.57,-169.629L1659.57,0L1568.61,0L1568.61,-304.541L1650.13,-304.541L1807.67,-135.791L1807.67,-304.541L1899.3,-304.541Z" transform="translate(103.543,432.935) scale(0.901327,0.901327)" style="animation: 10s linear infinite both o_f;"/>
    <path id="y2" fill="#ffffff" stroke="none" d="M832.537,-304.541ZM1170.47,-304.541L1051.16,-139.526L1051.16,0L959.317,0L959.317,-137.769L837.809,-304.541L933.17,-304.541L1003.04,-208.74L1073.14,-304.541Z" transform="translate(103.543,432.935) scale(0.901327,0.901327)" style="animation: 10s linear infinite both y2_f;"/>
    <path id="y1" fill="#ffffff" stroke="none" d="M832.537,-304.541L713.226,-139.526L713.226,0L621.38,0L621.38,-137.769L499.871,-304.541L595.232,-304.541L665.105,-208.74L735.198,-304.541ZM837.809,-304.541Z" transform="translate(103.543,432.935) scale(0.901327,0.901327)" style="animation: 10s linear infinite both y1_f;"/>
    <path id="i" fill="#ffffff" stroke="none" d="M458.564,0L366.719,0L366.719,-304.541L458.564,-304.541Z" transform="translate(103.543,432.935) scale(0.901327,0.901327)" style="animation: 10s linear infinite both i_f;"/>
    <path id="z" fill="#ffffff" stroke="none" d="M317.725,0L8.56934,0L166.113,-231.812L21.5332,-231.812L21.5332,-304.541L317.725,-304.541L160.62,-72.9492L317.725,-72.9492Z" transform="translate(103.543,432.935) scale(0.901327,0.901327)" style="animation: 10s linear infinite both z_f;"/>
    <text fill="#ffffff" font-size="400" font-family="Gill Sans" font-weight="700" letter-spacing="0" word-spacing="0" stroke="none" opacity="0" transform="translate(829.222,433.44)" style="line-height: 16px; animation: 10s linear infinite both a0_o, 10s linear infinite both a0_f;">&amp;</text>
</svg>
