<?xml version="1.0" encoding="UTF-8" standalone="no"?>
<!-- Created with Keyshape -->
<svg xmlns="http://www.w3.org/2000/svg" width="100%" height="100%" viewBox="0 0 1262 1138" clip-rule="evenodd" fill-rule="evenodd" stroke-linecap="round" stroke-linejoin="round" stroke-miterlimit="1.5" style="white-space: preserve-spaces;">
    <style>
@keyframes flag-1_t { 0% { transform: translate(660px,532px) rotate(0deg) translate(-155.947px,-400.744px); } 33.3333% { transform: translate(660px,532px) rotate(360deg) translate(-155.947px,-400.744px); } 100% { transform: translate(660px,532px) rotate(360deg) translate(-155.947px,-400.744px); } }
@keyframes a_f { 0% { fill: white; } 33.3333% { fill: #ff00f6; } 100% { fill: #ff00f6; } }
@keyframes c_f { 0% { fill: white; } 33.3333% { fill: #fbff00; } 100% { fill: #fbff00; } }
@keyframes d_f { 0% { fill: white; } 33.3333% { fill: #34fff5; } 100% { fill: #34fff5; } }
@keyframes b_f { 0% { fill: white; } 33.3333% { fill: #00ff00; } 100% { fill: #00ff00; } }
    </style>
    <ellipse rx="213.924" ry="213.924" transform="translate(652.663,521.261) scale(1.08424,1.08424)"/>
    <g id="flag-2" transform="translate(654.5,543) rotate(360) translate(-427.883,-21.7912)">
        <path d="M210.443,548.063L206.573,687.745L324.412,683.995L324.511,562.745L970.605,538.297L959.803,680.542L1088.39,689.516L1071.91,511.136L201.579,529.355L210.443,548.063Z" transform="translate(418.367,84.1535) scale(0.943531,0.943531) translate(-644.984,-600.326)"/>
        <path d="M310.459,580.6L254.87,580.787L254.87,610.444L318.422,608.61L310.459,580.6Z" fill="white" transform="translate(60.0286,74.3132) translate(-286.646,-595.522)"/>
        <path d="M312.027,629.011L257.417,627.777L255.073,668.761L311.152,666.402L312.027,629.011Z" fill="white" stroke="black" stroke-width="13.9px" transform="translate(56.4063,119.097) scale(1.28459,1) translate(-283.55,-648.269)"/>
    </g>
    <g id="flag-1" transform="translate(660,532) translate(-155.947,-400.744)" style="animation: 3s linear infinite both flag-1_t;">
        <path d="M504.053,132.558L661.428,131.256L661.428,981.589L546.251,982.506L546.251,892.292L645.084,890.552L639.818,226.381L517.86,231.922L556.105,185.042L504.053,132.558Z" transform="translate(78.6875,425.625) translate(-582.74,-556.881)"/>
        <path d="M620.511,153.798L621.198,201.308L550.027,213.48L587.646,179.574L558.396,150.157L620.511,153.798Z" fill="white" transform="translate(81.5595,50.5625) translate(-585.612,-181.819)"/>
        <ellipse rx="63.359" ry="63.359" fill="white" transform="translate(93.1151,808.8) scale(0.406843,0.406843)"/>
    </g>
    <g id="letters" transform="translate(644.938,533.524) translate(-172.101,-168.264)">
        <path id="a" fill="white" d="M183.008,-88.6719L80.4688,-88.6719L62.5,-46.875C58.0729,-36.5885,55.8594,-28.9062,55.8594,-23.8281C55.8594,-19.7917,57.7799,-16.2435,61.6211,-13.1836C65.4622,-10.1237,73.763,-8.13802,86.5234,-7.22656L86.5234,0L3.125,0L3.125,-7.22656C14.1927,-9.17969,21.3542,-11.7188,24.6094,-14.8438C31.25,-21.0938,38.6068,-33.7891,46.6797,-52.9297L139.844,-270.898L146.68,-270.898L238.867,-50.5859C246.289,-32.8776,253.027,-21.3867,259.082,-16.1133C265.137,-10.8398,273.568,-7.8776,284.375,-7.22656L284.375,0L179.883,0L179.883,-7.22656C190.43,-7.7474,197.559,-9.50521,201.27,-12.5C204.98,-15.4948,206.836,-19.1406,206.836,-23.4375C206.836,-29.1667,204.232,-38.2161,199.023,-50.5859ZM177.539,-103.125L132.617,-210.156L86.5234,-103.125Z" transform="translate(65.3702,78.9909) scale(0.46602,0.456716) translate(-143.398,120)" style="animation: 3s linear infinite both a_f;"/>
        <path id="c" fill="white" d="M240.82,-270.898L246.875,-180.859L240.82,-180.859C232.747,-207.812,221.224,-227.214,206.25,-239.062C191.276,-250.911,173.307,-256.836,152.344,-256.836C134.766,-256.836,118.88,-252.376,104.688,-243.457C90.4948,-234.538,79.3294,-220.312,71.1914,-200.781C63.0534,-181.25,58.9844,-156.966,58.9844,-127.93C58.9844,-103.971,62.8255,-83.2031,70.5078,-65.625C78.1901,-48.0469,89.7461,-34.5703,105.176,-25.1953C120.605,-15.8203,138.216,-11.1328,158.008,-11.1328C175.195,-11.1328,190.365,-14.8112,203.516,-22.168C216.667,-29.5247,231.12,-44.1406,246.875,-66.0156L252.93,-62.1094C239.648,-38.5417,224.154,-21.2891,206.445,-10.3516C188.737,0.585938,167.708,6.05469,143.359,6.05469C99.4792,6.05469,65.4948,-10.2214,41.4062,-42.7734C23.4375,-66.9922,14.4531,-95.5078,14.4531,-128.32C14.4531,-154.753,20.3776,-179.036,32.2266,-201.172C44.0755,-223.307,60.3841,-240.462,81.1523,-252.637C101.921,-264.811,124.609,-270.898,149.219,-270.898C168.359,-270.898,187.24,-266.211,205.859,-256.836C211.328,-253.971,215.234,-252.539,217.578,-252.539C221.094,-252.539,224.154,-253.776,226.758,-256.25C230.143,-259.766,232.552,-264.648,233.984,-270.898Z" transform="translate(88.9456,261.362) scale(0.596298,0.596298) translate(-130.797,120)" style="animation: 3s linear infinite both c_f;"/>
        <path id="d" fill="white" d="M6.83594,0L6.83594,-7.22656L16.7969,-7.22656C27.9948,-7.22656,35.9375,-10.8073,40.625,-17.9688C43.4896,-22.2656,44.9219,-31.901,44.9219,-46.875L44.9219,-217.969C44.9219,-234.505,43.099,-244.857,39.4531,-249.023C34.375,-254.753,26.8229,-257.617,16.7969,-257.617L6.83594,-257.617L6.83594,-264.844L114.648,-264.844C154.232,-264.844,184.342,-260.352,204.98,-251.367C225.618,-242.383,242.22,-227.409,254.785,-206.445C267.35,-185.482,273.633,-161.263,273.633,-133.789C273.633,-96.9401,262.435,-66.1458,240.039,-41.4062C214.909,-13.8021,176.628,0,125.195,0ZM82.4219,-19.1406C98.9583,-15.4948,112.826,-13.6719,124.023,-13.6719C154.232,-13.6719,179.297,-24.2839,199.219,-45.5078C219.141,-66.7318,229.102,-95.5078,229.102,-131.836C229.102,-168.424,219.141,-197.266,199.219,-218.359C179.297,-239.453,153.711,-250,122.461,-250C110.742,-250,97.3958,-248.112,82.4219,-244.336Z" transform="translate(276.785,267.193) scale(0.477344,0.477344) translate(-132.398,120)" style="animation: 3s linear infinite both d_f;"/>
        <path id="b" fill="white" d="M184.766,-135.156C203.125,-131.25,216.862,-125,225.977,-116.406C238.607,-104.427,244.922,-89.7786,244.922,-72.4609C244.922,-59.3099,240.755,-46.7122,232.422,-34.668C224.089,-22.6237,212.663,-13.8346,198.145,-8.30078C183.626,-2.76693,161.458,0,131.641,0L6.64062,0L6.64062,-7.22656L16.6016,-7.22656C27.6693,-7.22656,35.612,-10.7422,40.4297,-17.7734C43.4245,-22.3307,44.9219,-32.0312,44.9219,-46.875L44.9219,-217.969C44.9219,-234.375,43.0339,-244.727,39.2578,-249.023C34.1797,-254.753,26.6276,-257.617,16.6016,-257.617L6.64062,-257.617L6.64062,-264.844L121.094,-264.844C142.448,-264.844,159.57,-263.281,172.461,-260.156C191.992,-255.469,206.901,-247.168,217.188,-235.254C227.474,-223.34,232.617,-209.635,232.617,-194.141C232.617,-180.859,228.581,-168.978,220.508,-158.496C212.435,-148.014,200.521,-140.234,184.766,-135.156ZM82.4219,-145.703C87.2396,-144.792,92.7409,-144.108,98.9258,-143.652C105.111,-143.197,111.914,-142.969,119.336,-142.969C138.346,-142.969,152.637,-145.02,162.207,-149.121C171.777,-153.223,179.102,-159.505,184.18,-167.969C189.258,-176.432,191.797,-185.677,191.797,-195.703C191.797,-211.198,185.482,-224.414,172.852,-235.352C160.221,-246.289,141.797,-251.758,117.578,-251.758C104.557,-251.758,92.8385,-250.326,82.4219,-247.461ZM82.4219,-19.1406C97.526,-15.625,112.435,-13.8672,127.148,-13.8672C150.716,-13.8672,168.685,-19.1732,181.055,-29.7852C193.424,-40.3971,199.609,-53.5156,199.609,-69.1406C199.609,-79.4271,196.81,-89.3229,191.211,-98.8281C185.612,-108.333,176.497,-115.82,163.867,-121.289C151.237,-126.758,135.612,-129.492,116.992,-129.492C108.919,-129.492,102.018,-129.362,96.2891,-129.102C90.5599,-128.841,85.9375,-128.385,82.4219,-127.734Z" transform="translate(276.089,77.0478) scale(0.531937,0.531937) translate(-123.992,120)" style="animation: 3s linear infinite both b_f;"/>
    </g>
</svg>
